<?xml version="1.0" encoding="utf-8"?>
<svg id="svg-filter" viewBox="0 0 800 800" xmlns="http://www.w3.org/2000/svg"><path fill="currentColor" d="M410.7,400 412.5,392.8 411.5,388.5 409.1,384.3 400,378.2 387.2,377.9 380.6,380.6 374.7,385.4 367.1,400 368.3,418.3 372.8,427.2 379.8,434.9 400,444 423.9,441.3 435.1,435.1 444.6,425.7 455.1,400 455.5,396.8 455.6,393.5 455.5,390.2 455.3,386.9 454.8,383.5 454.1,380.2 453.3,377 452.2,373.7 450.9,370.5 449.5,367.3 447.8,364.3 446,361.3 443.9,358.4 441.7,355.6 439.3,352.9 436.7,350.4 434,348 431.1,345.7 428.1,343.6 424.9,341.7 421.6,340 418.2,338.4 414.7,337 411,335.9 407.3,334.9 403.6,334.2 399.7,333.7 395.8,333.4 391.9,333.4 388,333.6 384,334 380.1,334.6 376.1,335.5 372.3,336.6 368.4,338 364.6,339.6 361,341.4 357.4,343.4 353.9,345.7 350.5,348.2 347.3,350.9 344.2,353.8 341.2,356.9 338.5,360.2 335.9,363.6 333.5,367.2 331.3,371 329.4,374.9 327.6,379 326.1,383.1 324.9,387.4 323.8,391.7 323.1,396.2 322.6,400.7 322.3,405.2 322.4,409.8 322.7,414.4 323.2,419 324.1,423.5 325.2,428.1 326.6,432.5 328.2,437 330.1,441.3 332.3,445.5 334.8,449.6 337.5,453.6 340.4,457.5 343.6,461.1 347,464.7 350.6,468 354.4,471.1 358.4,474 362.6,476.6 367,479.1 371.5,481.3 376.2,483.2 381,484.8 385.9,486.2 390.9,487.3 396,488.1 401.2,488.6 406.4,488.8 411.6,488.6 416.8,488.2 422,487.5 427.2,486.5 432.3,485.1 437.4,483.5 442.4,481.5 447.3,479.2 452.1,476.7 456.7,473.9 461.2,470.7 465.5,467.3 469.6,463.7 473.5,459.8 477.2,455.6 480.7,451.3 483.9,446.7 486.8,441.9 489.5,436.9 491.9,431.7 494,426.4 495.8,421 497.3,415.5 498.4,409.8 499.2,404.1 499.7,398.3 499.8,394.8 499.8,391.2 499.7,387.7 499.5,384.2 499.1,380.7 498.6,377.2 498,373.7 497.2,370.2 496.4,366.7 495.4,363.3 494.3,359.9 493,356.5 491.7,353.2 490.2,349.9 488.6,346.6 486.9,343.4 485,340.2 483.1,337.2 481,334.1 478.9,331.2 476.6,328.3 474.2,325.5 471.7,322.7 469.1,320.1 466.4,317.5 463.7,315.1 460.8,312.7 457.8,310.4 454.8,308.2 451.7,306.1 448.5,304.2 445.2,302.3 441.8,300.6 438.4,298.9 434.9,297.4 431.4,296 427.8,294.7 424.2,293.6 420.5,292.6 416.7,291.7 413,290.9 409.1,290.3 405.3,289.8 401.5,289.4 397.6,289.2 393.7,289.1 389.8,289.1 385.9,289.3 382,289.6 378.1,290.1 374.2,290.7 370.3,291.4 366.5,292.3 362.6,293.3 358.8,294.4 355.1,295.7 351.3,297.1 347.6,298.7 344,300.3 340.4,302.1 336.9,304.1 333.4,306.1 330,308.3 326.7,310.6 323.5,313.1 320.3,315.6 317.2,318.3 314.2,321.1 311.3,324 308.5,327 305.8,330.1 303.2,333.3 300.8,336.5 298.4,339.9 296.1,343.4 294,347 292,350.6 290.1,354.3 288.3,358.1 286.7,362 285.2,365.9 283.8,369.9 282.6,373.9 281.5,378 280.6,382.1 279.8,386.3 279.1,390.5 278.6,394.7 278.3,398.9 278,403.2 278,407.5 278.1,411.8 278.3,416.1 278.7,420.3 279.2,424.6 279.9,428.9 280.8,433.1 281.8,437.4 282.9,441.6 284.2,445.7 285.7,449.9 287.3,453.9 289,458 290.9,461.9 292.9,465.8 295.1,469.7 297.4,473.5 299.8,477.2 302.4,480.8 305.1,484.3 307.9,487.7 310.9,491.1 313.9,494.3 317.1,497.5 320.4,500.5 323.9,503.4 327.4,506.2 331,508.9 334.8,511.5 338.6,513.9 342.5,516.2 346.5,518.4 350.6,520.4 354.7,522.3 359,524.1 363.3,525.7 367.6,527.1 372,528.4 376.5,529.5 381,530.5 385.6,531.4 390.2,532 394.8,532.5 399.4,532.9 404.1,533.1 408.7,533.1 413.4,533 418.1,532.7 422.8,532.2 427.4,531.5 432.1,530.7 436.7,529.8 441.3,528.7 445.9,527.4 450.4,525.9 454.9,524.3 459.3,522.5 463.6,520.6 468,518.5 472.2,516.3 476.4,513.9 480.4,511.3 484.4,508.6 488.3,505.8 492.2,502.8 495.9,499.7 499.5,496.5 503,493.1 506.4,489.6 509.6,486 512.8,482.2 515.8,478.4 518.7,474.4 521.4,470.3 524,466.2 526.5,461.9 528.8,457.5 531,453.1 533,448.6 534.8,443.9 536.5,439.3 538,434.5 539.4,429.7 540.6,424.9 541.6,420 542.5,415 543.2,410.1 543.7,405 544,400 544.2,395 544.2,391.3 544.1,387.7 543.9,384.1 543.7,380.5 543.3,376.9 542.9,373.3 542.3,369.7 541.7,366.1 541,362.5 540.2,358.9 539.3,355.4 538.3,351.9 537.2,348.4 536,344.9 534.8,341.4 533.4,338 532,334.6 530.5,331.3 528.9,327.9 527.2,324.6 525.4,321.4 523.5,318.2 521.6,315 519.6,311.9 517.5,308.8 515.3,305.8 513,302.8 510.7,299.9 508.3,297.1 505.8,294.3 503.3,291.5 500.6,288.8 497.9,286.2 495.2,283.7 492.3,281.2 489.5,278.8 486.5,276.4 483.5,274.2 480.4,272 477.3,269.9 474.1,267.8 470.8,265.8 467.5,264 464.2,262.1 460.8,260.4 457.3,258.8 453.9,257.2 450.3,255.8 446.8,254.4 443.2,253.1 439.5,251.9 435.8,250.8 432.1,249.7 428.4,248.8 424.6,248 420.9,247.2 417.1,246.6 413.2,246 409.4,245.6 405.5,245.2 401.7,244.9 397.8,244.8 393.9,244.7 390,244.7 386.1,244.8 382.2,245.1 378.3,245.4 374.4,245.8 370.6,246.3 366.7,246.9 362.8,247.6 359,248.4 355.2,249.3 351.3,250.3 347.6,251.4 343.8,252.6 340.1,253.9 336.4,255.3 332.7,256.8 329,258.3 325.4,260 321.9,261.8 318.4,263.6 314.9,265.5 311.4,267.6 308.1,269.7 304.7,271.9 301.4,274.2 298.2,276.5 295,279 291.9,281.5 288.9,284.1 285.9,286.8 283,289.6 280.1,292.4 277.3,295.3 274.6,298.3 272,301.4 269.4,304.5 266.9,307.7 264.5,311 262.2,314.3 259.9,317.7 257.7,321.1 255.7,324.6 253.7,328.2 251.7,331.8 249.9,335.4 248.2,339.1 246.6,342.9 245,346.7 243.5,350.5 242.2,354.4 240.9,358.3 239.8,362.3 238.7,366.2 237.7,370.2 236.9,374.3 236.1,378.3 235.4,382.4 234.9,386.5 234.4,390.7 234,394.8 233.8,398.9 233.6,403.1 233.6,407.3 233.6,411.4 233.8,415.6 234.1,419.8 234.4,424 234.9,428.1 235.5,432.3 236.2,436.4 237,440.5 237.9,444.6 238.9,448.7 240,452.8 241.2,456.8 242.5,460.9 243.9,464.8 245.4,468.8 247,472.7 248.7,476.6 250.5,480.4 252.4,484.2 254.4,488 256.5,491.7 258.7,495.4 261,499 263.4,502.5 265.8,506 268.4,509.4 271,512.8 273.8,516.1 276.6,519.4 279.5,522.5 282.5,525.6 285.5,528.7 288.7,531.6 291.9,534.5 295.2,537.3 298.5,540 302,542.7 305.5,545.2 309,547.7 312.7,550.1 316.4,552.4 320.1,554.6 323.9,556.7 327.8,558.7 331.7,560.6 335.7,562.4 339.7,564.2 343.8,565.8 347.9,567.3 352,568.7 356.2,570 360.4,571.3 364.7,572.4 369,573.4 373.3,574.3 377.7,575.1 382,575.7 386.4,576.3 390.8,576.8 395.2,577.1 399.7,577.4 404.1,577.5 408.5,577.5 413,577.4 417.4,577.2 421.9,576.9 426.3,576.5 430.8,575.9 435.2,575.3 439.6,574.5 444,573.6 448.4,572.7 452.7,571.6 457,570.4 461.3,569 465.6,567.6 469.8,566.1 474.1,564.5 478.2,562.7 482.3,560.9 486.4,558.9 490.5,556.9 494.4,554.7 498.4,552.4 502.3,550.1 506.1,547.6 509.8,545.1 513.5,542.4 517.2,539.7 520.8,536.8 524.3,533.9 527.7,530.9 531,527.8 534.3,524.6 537.5,521.3 540.7,517.9 543.7,514.5 546.7,511 549.5,507.4 552.3,503.7 555,499.9 557.6,496.1 560.1,492.2 562.5,488.3 564.8,484.3 567.1,480.2 569.2,476.1 571.2,471.9 573.1,467.7 574.9,463.4 576.6,459 578.2,454.7 579.7,450.2 581,445.8 582.3,441.3 583.4,436.7 584.5,432.2 585.4,427.6 586.2,422.9 586.9,418.3 587.5,413.6 587.9,409 588.3,404.3 588.5,399.5 588.6,395.9 588.6,392.2 588.6,388.5 588.4,384.9 588.2,381.2 588,377.5 587.6,373.8 587.2,370.2 586.8,366.5 586.2,362.9 585.6,359.2 584.9,355.6 584.1,352 583.3,348.4 582.4,344.8 581.4,341.2 580.4,337.6 579.2,334.1 578,330.6 576.8,327.1 575.5,323.6 574.1,320.1 572.6,316.7 571.1,313.3 569.5,309.9 567.8,306.6 566.1,303.3 564.3,300 562.4,296.7 560.5,293.5 558.5,290.3 556.5,287.2 554.4,284.1 552.2,281 549.9,278 547.7,275 545.3,272.1 542.9,269.2 540.4,266.3 537.9,263.5 535.3,260.8 532.7,258.1 530,255.4 527.2,252.8 524.4,250.3 521.6,247.8 518.7,245.3 515.7,242.9 512.7,240.6 509.7,238.3 506.6,236.1 503.5,233.9 500.3,231.8 497.1,229.8 493.8,227.8 490.5,225.9 487.2,224.1 483.8,222.3 480.4,220.6 476.9,218.9 473.4,217.3 469.9,215.8 466.4,214.3 462.8,213 459.2,211.6 455.5,210.4 451.9,209.2 448.2,208.1 444.5,207.1 440.7,206.1 437,205.2 433.2,204.4 429.4,203.7 425.6,203 421.8,202.4 418,201.9 414.1,201.4 410.3,201 406.4,200.7 402.5,200.5 398.6,200.4 394.8,200.3 390.9,200.3 387,200.4 383.1,200.5 379.2,200.8 375.3,201.1 371.4,201.4 367.6,201.9 363.7,202.4 359.8,203 356,203.7 352.1,204.5 348.3,205.3 344.5,206.2 340.7,207.2 336.9,208.3 333.1,209.4 329.4,210.6 325.7,211.9 322,213.2 318.3,214.7 314.7,216.2 311.1,217.7 307.5,219.4 303.9,221.1 300.4,222.9 296.9,224.7 293.4,226.7 290,228.6 286.6,230.7 283.3,232.8 279.9,235 276.7,237.3 273.5,239.6 270.3,242 267.1,244.4 264,246.9 261,249.5 258,252.1 255.1,254.8 252.2,257.6 249.3,260.4 246.5,263.3 243.8,266.2 241.1,269.1 238.5,272.2 235.9,275.3 233.4,278.4 231,281.6 228.6,284.8 226.3,288.1 224,291.4 221.8,294.8 219.7,298.2 217.6,301.7 215.6,305.2 213.7,308.7 211.8,312.3 210,315.9 208.3,319.6 206.6,323.3 205.1,327 203.5,330.7 202.1,334.5 200.7,338.4 199.4,342.2 198.2,346.1 197.1,350 196,353.9 195,357.9 194.1,361.8 193.3,365.8 192.5,369.8 191.8,373.8 191.2,377.9 190.7,381.9 190.2,386 189.9,390.1 189.6,394.2 189.4,398.2 189.2,402.3 189.2,406.4 189.2,410.6 189.3,414.7 189.5,418.8 189.8,422.9 190.1,427 190.5,431.1 191.1,435.2 191.6,439.2 192.3,443.3 193.1,447.4 193.9,451.4 194.8,455.5 195.8,459.5 196.8,463.5 198,467.5 199.2,471.4 200.5,475.4 201.9,479.3 203.3,483.2 204.9,487 206.5,490.9 208.1,494.7 209.9,498.4 211.7,502.2 213.6,505.9 215.6,509.6 217.7,513.2 219.8,516.8 222,520.4 224.2,523.9 226.6,527.4 229,530.8 231.4,534.2 234,537.5 236.6,540.8 239.2,544.1 242,547.3 244.8,550.4 247.6,553.5 250.5,556.5 253.5,559.5 256.5,562.4 259.6,565.3 262.8,568.1 266,570.8 269.3,573.5 272.6,576.1 276,578.7 279.4,581.2 282.9,583.6 286.4,586 289.9,588.3 293.6,590.5 297.2,592.6 300.9,594.7 304.7,596.7 308.5,598.7 312.3,600.6 316.1,602.3 320,604.1 324,605.7 327.9,607.3 331.9,608.8 336,610.2 340,611.5 344.1,612.8 348.2,614 352.4,615.1 356.6,616.1 360.7,617 364.9,617.9 369.2,618.7 373.4,619.4 377.7,620 381.9,620.5 386.2,620.9 390.5,621.3 394.8,621.6 399.1,621.8 403.4,621.9 407.8,621.9 412.1,621.9 416.4,621.7 420.7,621.5 425,621.2 429.4,620.8 433.7,620.3 438,619.8 442.3,619.1 446.5,618.4 450.8,617.6 455.1,616.7 459.3,615.7 463.5,614.6 467.7,613.5 471.9,612.3 476.1,611 480.2,609.6 484.3,608.1 488.4,606.6 492.5,604.9 496.5,603.2 500.5,601.4 504.4,599.5 508.4,597.6 512.3,595.6 516.1,593.5 519.9,591.3 523.7,589 527.4,586.7 531.1,584.3 534.8,581.8 538.4,579.3 541.9,576.7 545.4,574 548.8,571.2 552.2,568.4 555.6,565.5 558.9,562.6 562.1,559.5 565.3,556.4 568.4,553.3 571.4,550.1 574.4,546.8 577.3,543.5 580.2,540.1 583,536.6 585.7,533.1 588.4,529.6 591,526 593.5,522.3 596,518.6 598.4,514.8 600.7,511 602.9,507.1 605.1,503.2 607.2,499.3 609.2,495.3 611.2,491.3 613,487.2 614.8,483.1 616.5,478.9 618.1,474.8 619.7,470.5 621.1,466.3 622.5,462 623.8,457.7 625,453.4 626.2,449 627.2,444.7 628.2,440.2 629,435.8 629.8,431.4 630.5,426.9 631.2,422.4 631.7,418 632.1,413.5 632.5,408.9 632.7,404.4 632.9,399.9 633,396.2 633,392.5 633,388.8 632.9,385.1 632.7,381.3 632.5,377.6 632.3,373.9 631.9,370.2 631.5,366.5 631.1,362.8 630.6,359.1 630,355.4 629.4,351.8 628.7,348.1 627.9,344.4 627.1,340.8 626.3,337.2 625.4,333.5 624.4,329.9 623.3,326.3 622.2,322.7 621.1,319.2 619.9,315.6 618.6,312.1 617.3,308.6 615.9,305.1 614.5,301.6 613,298.2 611.4,294.8 609.8,291.4 608.2,288 606.5,284.6 604.7,281.3 602.9,278 601,274.7 599.1,271.5 597.1,268.3 595.1,265.1 593,261.9 590.9,258.8 588.7,255.7 586.5,252.7 584.2,249.6 581.9,246.7 579.5,243.7 577.1,240.8 574.6,237.9 572.1,235.1 569.5,232.3 566.9,229.5 564.2,226.8 561.5,224.2 558.8,221.5 556,218.9 553.2,216.4 550.3,213.9 547.4,211.4 544.4,209 541.5,206.7 538.4,204.3 535.4,202.1 532.3,199.8 529.1,197.7 525.9,195.5 522.7,193.5 519.5,191.4 516.2,189.5 512.9,187.6 509.6,185.7 506.2,183.9 502.8,182.1 499.3,180.4 495.9,178.7 492.4,177.1 488.9,175.6 485.3,174.1 481.8,172.7 478.2,171.3 474.6,170 470.9,168.7 467.3,167.5 463.6,166.3 459.9,165.2 456.2,164.2 452.4,163.2 448.7,162.3 444.9,161.5 441.1,160.7 437.3,159.9 433.5,159.3 429.7,158.7 425.9,158.1 422,157.6 418.2,157.2 414.3,156.8 410.5,156.5 406.6,156.2 402.7,156.1 398.8,155.9 394.9,155.9 391.1,155.9 387.2,155.9 383.3,156.1 379.4,156.2 375.5,156.5 371.6,156.8 367.7,157.2 363.9,157.6 360,158.1 356.1,158.6 352.3,159.3 348.4,159.9 344.6,160.7 340.8,161.5 336.9,162.4 333.1,163.3 329.4,164.3 325.6,165.3 321.8,166.4 318.1,167.6 314.3,168.8 310.6,170.1 306.9,171.4 303.3,172.9 299.6,174.3 296,175.8 292.4,177.4 288.8,179.1 285.3,180.8 281.7,182.5 278.2,184.3 274.8,186.2 271.3,188.1 267.9,190.1 264.5,192.1 261.2,194.2 257.9,196.4 254.6,198.6 251.3,200.8 248.1,203.1 244.9,205.5 241.8,207.9 238.7,210.3 235.6,212.8 232.5,215.4 229.6,218 226.6,220.6 223.7,223.3 220.8,226.1 218,228.9 215.2,231.7 212.5,234.6 209.8,237.5 207.1,240.5 204.5,243.5 202,246.6 199.5,249.7 197,252.8 194.6,256 192.3,259.3 189.9,262.5 187.7,265.8 185.5,269.2 183.3,272.5 181.2,275.9 179.2,279.4 177.2,282.8 175.3,286.4 173.4,289.9 171.6,293.5 169.8,297.1 168.1,300.7 166.4,304.4 164.8,308.1 163.3,311.8 161.8,315.5 160.4,319.3 159,323.1 157.7,326.9 156.5,330.7 155.3,334.6 154.2,338.4 153.1,342.3 152.1,346.2 151.2,350.2 150.3,354.1 149.5,358.1 148.8,362 148.1,366 147.5,370 146.9,374 146.4,378.1 146,382.1 145.6,386.1 145.3,390.2 145.1,394.2 144.9,398.3 144.8,402.3 144.8,406.4 144.8,410.5 144.9,414.5 145,418.6 145.2,422.7 145.5,426.7 145.9,430.8 146.3,434.8 146.7,438.9 147.3,442.9 147.9,447 148.6,451 149.3,455 150.1,459 150.9,463 151.9,467 152.9,471 153.9,474.9 155,478.9 156.2,482.8 157.5,486.7 158.8,490.6 160.1,494.4 161.6,498.3 163,502.1 164.6,505.9 166.2,509.7 167.9,513.5 169.6,517.2 171.4,520.9 173.3,524.6 175.2,528.2 177.1,531.8 179.2,535.4 181.3,539 183.4,542.5 185.6,546 187.9,549.5 190.2,552.9 192.6,556.3 195,559.6 197.5,562.9 200,566.2 202.6,569.4 205.2,572.6 207.9,575.8 210.6,578.9 213.4,582 216.3,585 219.2,588 222.1,590.9 225.1,593.8 228.1,596.6 231.2,599.4 234.3,602.2 237.5,604.9 240.7,607.5 243.9,610.1 247.2,612.7 250.6,615.2 254,617.6 257.4,620 260.8,622.3 264.3,624.6 267.9,626.8 271.4,629 275,631.1 278.7,633.2 282.4,635.2 286.1,637.1 289.8,639 293.6,640.9 297.4,642.6 301.2,644.3 305.1,646 309,647.6 312.9,649.1 316.8,650.5 320.8,651.9 324.8,653.3 328.8,654.5 332.8,655.8 336.8,656.9 340.9,658 345,659 349.1,660 353.2,660.8 357.4,661.7 361.5,662.4 365.7,663.1 369.9,663.7 374.1,664.3 378.3,664.8 382.5,665.2 386.7,665.6 390.9,665.9 395.1,666.1 399.4,666.2 403.6,666.3 407.8,666.4 412.1,666.3 416.3,666.2 420.6,666 424.8,665.8 429,665.4 433.3,665.1 437.5,664.6 441.7,664.1 445.9,663.5 450.2,662.9 454.4,662.1 458.5,661.3 462.7,660.5 466.9,659.6 471,658.6 475.2,657.5 479.3,656.4 483.4,655.2 487.5,654 491.5,652.6 495.6,651.3 499.6,649.8 503.6,648.3 507.6,646.7 511.6,645.1 515.5,643.4 519.4,641.6 523.3,639.8 527.1,637.9 531,635.9 534.8,633.9 538.5,631.8 542.3,629.7 545.9,627.5 549.6,625.2 553.2,622.9 556.8,620.6 560.4,618.1 563.9,615.6 567.4,613.1 570.8,610.5 574.2,607.8 577.6,605.1 580.9,602.3 584.2,599.5 587.4,596.6 590.6,593.7 593.7,590.7 596.8,587.7 599.9,584.6 602.9,581.5 605.8,578.3 608.7,575.1 611.5,571.8 614.3,568.5 617.1,565.2 619.8,561.7 622.4,558.3 625,554.8 627.5,551.3 630,547.7 632.4,544.1 634.8,540.4 637.1,536.7 639.3,533 641.5,529.2 643.6,525.4 645.7,521.6 647.7,517.7 649.6,513.8 651.5,509.8 653.3,505.9 655.1,501.9 656.8,497.8 658.4,493.8 660,489.7 661.5,485.6 662.9,481.4 664.3,477.3 665.6,473.1 666.8,468.9 668,464.6 669.1,460.4 670.2,456.1 671.1,451.8 672,447.5 672.9,443.2 673.6,438.9 674.3,434.6 674.9,430.2 675.5,425.8 676,421.5 676.4,417.1 676.8,412.7 677,408.3 677.2,403.9 677.4,399.5 677.4,395.7 677.5,392 677.4,388.2 677.3,384.5 677.2,380.8 677,377 676.8,373.3 676.5,369.6 676.1,365.8 675.7,362.1 675.3,358.4 674.8,354.7 674.3,350.9 673.7,347.2 673,343.5 672.3,339.8 671.6,336.2 670.8,332.5 670,328.8 669.1,325.2 668.1,321.5 667.1,317.9 666.1,314.3 665,310.7 663.9,307.1 662.7,303.5 661.5,299.9 660.2,296.4 658.9,292.9 657.5,289.4 656,285.9 654.6,282.4 653.1,278.9 651.5,275.5 649.9,272.1 648.2,268.7 646.5,265.3 644.8,261.9 643,258.6 641.1,255.3 639.2,252 637.3,248.8 635.3,245.5 633.3,242.3 631.2,239.1 629.1,236 627,232.9 624.8,229.8 622.5,226.7 620.3,223.7 617.9,220.7 615.6,217.7 613.2,214.7 610.7,211.8 608.2,208.9 605.7,206.1 603.2,203.3 600.6,200.5 597.9,197.7 595.2,195 592.5,192.3 589.8,189.7 587,187.1 584.2,184.5 581.3,182 578.4,179.5 575.5,177 572.5,174.6 569.5,172.2 566.5,169.9 563.5,167.6 560.4,165.3 557.3,163.1 554.1,160.9 550.9,158.8 547.7,156.7 544.5,154.7 541.2,152.7 537.9,150.7 534.6,148.8 531.2,146.9 527.9,145.1 524.4,143.3 521,141.5 517.6,139.9 514.1,138.2 510.6,136.6 507.1,135.1 503.5,133.5 500,132.1 496.4,130.7 492.8,129.3 489.2,128 485.5,126.7 481.9,125.5 478.2,124.3 474.5,123.2 470.8,122.2 467.1,121.1 463.3,120.2 459.6,119.2 455.8,118.4 452,117.6 448.2,116.8 444.4,116.1 440.6,115.4 436.8,114.8 433,114.2 429.1,113.7 425.3,113.3 421.4,112.8 417.6,112.5 413.7,112.2 409.8,111.9 405.9,111.7 402.1,111.6 398.2,111.5 394.3,111.4 390.4,111.4 386.5,111.5 382.6,111.6 378.7,111.8 374.8,112 371,112.3 367.1,112.6 363.2,113 359.3,113.4 355.5,113.9 351.6,114.4 347.7,115 343.9,115.6 340,116.3 336.2,117.1 332.4,117.8 328.6,118.7 324.8,119.6 321,120.5 317.2,121.5 313.4,122.6 309.7,123.7 305.9,124.8 302.2,126 298.5,127.3 294.8,128.6 291.1,129.9 287.4,131.3 283.8,132.8 280.2,134.3 276.6,135.8 273,137.4 269.4,139.1 265.9,140.8 262.3,142.5 258.8,144.3 255.4,146.2 251.9,148.1 248.5,150 245.1,152 241.7,154 238.4,156.1 235,158.2 231.7,160.4 228.5,162.6 225.2,164.8 222,167.1 218.8,169.5 215.7,171.9 212.6,174.3 209.5,176.8 206.4,179.3 203.4,181.8 200.4,184.4 197.5,187.1 194.6,189.7 191.7,192.4 188.9,195.2 186.1,198 183.3,200.8 180.5,203.7 177.9,206.6 175.2,209.6 172.6,212.5 170,215.6 167.5,218.6 165,221.7 162.5,224.8 160.1,228 157.7,231.2 155.4,234.4 153.1,237.7 150.9,240.9 148.7,244.3 146.5,247.6 144.4,251 142.3,254.4 140.3,257.8 138.3,261.3 136.4,264.8 134.5,268.3 132.7,271.9 130.9,275.4 129.2,279 127.5,282.6 125.8,286.3 124.2,289.9 122.7,293.6 121.2,297.3 119.8,301.1 118.4,304.8 117,308.6 115.7,312.4 114.5,316.2 113.3,320 112.1,323.9 111,327.7 110,331.6 109,335.5 108.1,339.4 107.2,343.3 106.4,347.2 105.6,351.2 104.9,355.1 104.2,359.1 103.6,363.1 103,367.1 102.5,371.1 102,375.1 101.6,379.1 101.3,383.1 101,387.1 100.7,391.1 100.6,395.1 100.4,399.2 100.3,403.2 100.3,407.2 100.4,411.3 100.4,415.3 100.6,419.4 100.8,423.4 101,427.4 101.3,431.5 101.7,435.5 102.1,439.5 102.5,443.5 103.1,447.6 103.6,451.6 104.3,455.6 105,459.6 105.7,463.5 106.5,467.5 107.3,471.5 108.2,475.5 109.2,479.4 110.2,483.3 111.2,487.3 112.3,491.2 113.5,495.1 114.7,498.9 116,502.8 117.3,506.6 118.7,510.5 120.1,514.3 121.6,518.1 123.1,521.9 124.7,525.6 126.3,529.4 128,533.1 129.7,536.8 131.5,540.4 133.3,544.1 135.2,547.7 137.1,551.3 139.1,554.9 141.2,558.4 143.2,561.9 145.4,565.4 147.5,568.9 149.7,572.3 152,575.8 154.3,579.1 156.7,582.5 159.1,585.8 161.5,589.1 164,592.3 166.6,595.6 169.1,598.7 171.8,601.9 174.4,605 177.1,608.1 179.9,611.1 182.7,614.2 185.5,617.1 188.4,620.1 191.3,623 194.3,625.8 197.3,628.6 200.3,631.4 203.4,634.2 206.5,636.9 209.6,639.5 212.8,642.1 216,644.7 219.3,647.2 222.6,649.7 225.9,652.2 229.3,654.6 232.7,656.9 236.1,659.2 239.5,661.5 243,663.7 246.5,665.9 250.1,668 253.7,670.1 257.3,672.1 260.9,674.1 264.6,676 268.3,677.9 272,679.8 275.7,681.5 279.5,683.3 283.3,685 287.1,686.6 290.9,688.2 294.8,689.7 298.6,691.2 302.5,692.6 306.5,694 310.4,695.3 314.4,696.6 318.3,697.8 322.3,699 326.3,700.1 330.4,701.1 334.4,702.2 338.5,703.1 342.5,704 346.6,704.8 350.7,705.6 354.8,706.4 358.9,707 363,707.6 367.2,708.2 371.3,708.7 375.5,709.2 379.6,709.6 383.8,709.9 388,710.2 392.1,710.4 396.3,710.6 400.5,710.7 404.7,710.8 408.9,710.8 413.1,710.7 417.2,710.6 421.4,710.5 425.6,710.2 429.8,710 434,709.6 438.2,709.2 442.3,708.8 446.5,708.3 450.7,707.7 454.8,707.1 459,706.4 463.1,705.7 467.2,704.9 471.4,704.1 475.5,703.2 479.6,702.2 483.6,701.2 487.7,700.2 491.8,699 495.8,697.9 499.9,696.6 503.9,695.4 507.9,694 511.9,692.6 515.8,691.2 519.8,689.7 523.7,688.1 527.6,686.5 531.5,684.9 535.4,683.2 539.2,681.4 543,679.6 546.8,677.7 550.6,675.8 554.3,673.8 558,671.8 561.7,669.7 565.4,667.6 569,665.5 572.7,663.2 576.2,661 579.8,658.6 583.3,656.3 586.8,653.9 590.3,651.4 593.7,648.9 597.1,646.3 600.4,643.7 603.8,641.1 607.1,638.4 610.3,635.7 613.5,632.9 616.7,630.1 619.9,627.2 623,624.3 626,621.3 629.1,618.3 632,615.3 635,612.2 637.9,609.1 640.8,605.9 643.6,602.7 646.4,599.5 649.1,596.2 651.8,592.9 654.4,589.5 657.1,586.2 659.6,582.7 662.1,579.3 664.6,575.8 667,572.3 669.4,568.7 671.7,565.1 674,561.5 676.2,557.8 678.4,554.1 680.6,550.4 682.6,546.7 684.7,542.9 686.7,539.1 688.6,535.3 690.5,531.4 692.3,527.5 694.1,523.6 695.8,519.7 697.5,515.7 699.1,511.7 700.7,507.7 702.2,503.7 703.6,499.7 705,495.6 706.4,491.5 707.7,487.4 708.9,483.3 710.1,479.1 711.2,475 712.3,470.8 713.3,466.6 714.3,462.4 715.2,458.2 716,453.9 716.8,449.7 717.6,445.4 718.3,441.2 718.9,436.9 719.4,432.6 719.9,428.3 720.4,424 720.8,419.7 721.1,415.4 721.4,411.1 721.6,406.7 721.8,402.4 721.9,398.1 721.9,394.3 721.9,390.6 721.8,386.8 721.7,383 721.6,379.3 721.4,375.5 721.2,371.8 720.9,368 720.6,364.3 720.3,360.5 719.9,356.8 719.4,353 718.9,349.3 718.4,345.6 717.8,341.8 717.2,338.1 716.5,334.4 715.8,330.7 715.1,327 714.3,323.3 713.4,319.6 712.6,316 711.6,312.3 710.7,308.6 709.7,305 708.6,301.4 707.5,297.7 706.4,294.1 705.2,290.5 704,287 702.7,283.4 701.4,279.8 700.1,276.3 698.7,272.8 697.3,269.3 695.8,265.8 694.3,262.3 692.7,258.8 691.1,255.4 689.5,252 687.8,248.6 686.1,245.2 684.4,241.8 682.6,238.5 680.7,235.1 678.9,231.8 677,228.5 675,225.3 673,222 671,218.8 668.9,215.6 666.8,212.4 664.7,209.3 662.5,206.2 660.3,203.1 658,200 655.8,196.9 653.4,193.9 651.1,190.9 648.7,188 646.2,185 643.8,182.1 641.3,179.2 638.8,176.4 636.2,173.5 633.6,170.7 631,168 628.3,165.2 625.6,162.5 622.9,159.8 620.1,157.2 617.3,154.6 614.5,152 611.6,149.5 608.7,146.9 605.8,144.5 602.9,142 599.9,139.6 596.9,137.2 593.9,134.9 590.8,132.6 587.7,130.3 584.6,128 581.5,125.8 578.3,123.7 575.1,121.5 571.9,119.4 568.7,117.4 565.4,115.4 562.1,113.4 558.8,111.4 555.4,109.5 552.1,107.7 548.7,105.8 545.3,104 541.9,102.3 538.4,100.6 534.9,98.9 531.5,97.3 528,95.7 524.4,94.1 520.9,92.6 517.3,91.2 513.7,89.7 510.1,88.4 506.5,87 502.9,85.7 499.2,84.5 495.6,83.2 491.9,82.1 488.2,80.9 484.5,79.9 480.8,78.8 477,77.8 473.3,76.9 469.5,75.9 465.8,75.1 462,74.2 458.2,73.5 454.4,72.7 450.6,72 446.8,71.4 442.9,70.8 439.1,70.2 435.3,69.7 431.4,69.2 427.6,68.8 423.7,68.4 419.8,68.1 416,67.8 412.1,67.6 408.2,67.4 404.3,67.2 400.4,67.1 396.6,67 392.7,67 388.8,67 384.9,67.1 381,67.2 377.1,67.4 373.2,67.6 369.3,67.8 365.5,68.1 361.6,68.5 357.7,68.9 353.8,69.3 350,69.8 346.1,70.3 342.3,70.9 338.4,71.5 334.6,72.1 330.7,72.9 326.9,73.6 323.1,74.4 319.3,75.2 315.4,76.1 311.7,77.1 307.9,78 304.1,79 300.3,80.1 296.6,81.2 292.8,82.4 289.1,83.6 285.4,84.8 281.7,86.1 278,87.4 274.3,88.8 270.7,90.2 267.1,91.6 263.4,93.1 259.8,94.7 256.2,96.3 252.7,97.9 249.1,99.5 245.6,101.2 242.1,103 238.6,104.8 235.1,106.6 231.6,108.5 228.2,110.4 224.8,112.4 221.4,114.4 218.1,116.4 214.7,118.5 211.4,120.6 208.1,122.7 204.8,124.9 201.6,127.1 198.4,129.4 195.2,131.7 192,134.1 188.9,136.4 185.7,138.9 182.7,141.3 179.6,143.8 176.6,146.3 173.6,148.9 170.6,151.5 167.7,154.1 164.8,156.8 161.9,159.5 159,162.2 156.2,165 153.4,167.8 150.7,170.6 148,173.5 145.3,176.4 142.6,179.3 140,182.3 137.4,185.3 134.9,188.3 132.3,191.4 129.9,194.5 127.4,197.6 125,200.7 122.6,203.9 120.3,207.1 118,210.4 115.7,213.6 113.5,216.9 111.3,220.2 109.2,223.5 107.1,226.9 105,230.3 103,233.7 101,237.1 99,240.6 97.1,244.1 95.2,247.6 93.4,251.1 91.6,254.7 89.8,258.3 88.1,261.9 86.5,265.5 84.9,269.1 83.3,272.8 81.7,276.4 80.2,280.1 78.8,283.8 77.4,287.6 76,291.3 74.7,295.1 73.4,298.9 72.2,302.6 71,306.5 69.8,310.3 68.7,314.1 67.6,318 66.6,321.8 65.7,325.7 64.7,329.6 63.9,333.5 63,337.4 62.2,341.3 61.5,345.3 60.8,349.2 60.1,353.2 59.5,357.1 59,361.1 58.5,365.1 58,369 57.6,373 57.2,377 56.9,381 56.6,385 56.4,389 56.2,393 56,397 55.9,401 55.9,405.1 55.9,409.1 55.9,413.1 56,417.1 56.2,421.1 56.4,425.1 56.6,429.2 56.9,433.2 57.2,437.2 57.6,441.2 58,445.2 58.5,449.2 59,453.2 59.6,457.2 60.2,461.2 60.8,465.1 61.5,469.1 62.3,473.1 63.1,477 63.9,481 64.8,484.9 65.7,488.8 66.7,492.7 67.7,496.7 68.8,500.5 69.9,504.4 71.1,508.3 72.3,512.2 73.5,516 74.8,519.8 76.2,523.6 77.6,527.4 79,531.2 80.5,535 82,538.7 83.6,542.5 85.2,546.2 86.8,549.9 88.5,553.6 90.3,557.2 92.1,560.9 93.9,564.5 95.7,568.1 97.7,571.7 99.6,575.2 101.6,578.8 103.6,582.3 105.7,585.8 107.8,589.2 110,592.7 112.2,596.1 114.4,599.5 116.7,602.9 119,606.2 121.4,609.5 123.8,612.8 126.2,616.1 128.7,619.3 131.2,622.5 133.8,625.7 136.4,628.8 139,631.9 141.6,635 144.3,638.1 147.1,641.1 149.8,644.1 152.7,647 155.5,650 158.4,652.9 161.3,655.7 164.2,658.6 167.2,661.4 170.2,664.1 173.3,666.8 176.3,669.5 179.4,672.2 182.6,674.8 185.8,677.4 189,679.9 192.2,682.4 204.9,665.2 201.8,662.8 198.8,660.4 195.9,658 192.9,655.6 190,653.1 187.1,650.5 184.3,648 181.4,645.4 178.7,642.7 175.9,640.1 173.2,637.4 170.5,634.7 167.8,631.9 165.2,629.1 162.6,626.3 160,623.5 157.5,620.6 155,617.7 152.5,614.8 150.1,611.8 147.7,608.8 145.3,605.8 143,602.8 140.7,599.7 138.5,596.6 136.3,593.5 134.1,590.4 132,587.2 129.9,584 127.8,580.8 125.8,577.6 123.8,574.4 121.9,571.1 120,567.8 118.1,564.5 116.3,561.1 114.5,557.8 112.7,554.4 111,551 109.4,547.5 107.7,544.1 106.1,540.7 104.6,537.2 103.1,533.7 101.6,530.2 100.2,526.7 98.8,523.1 97.5,519.6 96.2,516 94.9,512.4 93.7,508.8 92.5,505.2 91.4,501.6 90.3,498 89.3,494.3 88.3,490.7 87.3,487 86.4,483.3 85.5,479.6 84.7,476 83.9,472.3 83.2,468.5 82.5,464.8 81.8,461.1 81.2,457.4 80.7,453.6 80.1,449.9 79.7,446.1 79.2,442.4 78.8,438.6 78.5,434.9 78.2,431.1 77.9,427.4 77.7,423.6 77.5,419.8 77.4,416.1 77.3,412.3 77.3,408.5 77.3,404.7 77.3,401 77.4,397.2 77.6,393.5 77.8,389.7 78,385.9 78.3,382.2 78.6,378.4 78.9,374.7 79.3,371 79.8,367.2 80.2,363.5 80.8,359.8 81.4,356.1 82,352.4 82.6,348.7 83.3,345 84.1,341.3 84.9,337.7 85.7,334 86.6,330.4 87.5,326.7 88.4,323.1 89.4,319.5 90.5,315.9 91.6,312.3 92.7,308.7 93.8,305.2 95,301.6 96.3,298.1 97.6,294.6 98.9,291.1 100.3,287.6 101.7,284.2 103.1,280.7 104.6,277.3 106.1,273.9 107.7,270.5 109.3,267.2 111,263.8 112.6,260.5 114.4,257.2 116.1,253.9 117.9,250.6 119.8,247.4 121.6,244.2 123.5,241 125.5,237.8 127.5,234.6 129.5,231.5 131.5,228.4 133.6,225.3 135.8,222.3 137.9,219.3 140.1,216.3 142.3,213.3 144.6,210.4 146.9,207.4 149.2,204.6 151.6,201.7 154,198.9 156.4,196.1 158.9,193.3 161.4,190.5 163.9,187.8 166.4,185.1 169,182.5 171.6,179.9 174.3,177.3 176.9,174.7 179.6,172.2 182.4,169.7 185.1,167.2 187.9,164.8 190.7,162.4 193.6,160 196.4,157.7 199.3,155.4 202.2,153.1 205.2,150.9 208.2,148.7 211.2,146.6 214.2,144.5 217.2,142.4 220.3,140.3 223.4,138.3 226.5,136.3 229.6,134.4 232.8,132.5 235.9,130.6 239.1,128.8 242.4,127 245.6,125.3 248.8,123.6 252.1,121.9 255.4,120.3 258.7,118.7 262,117.1 265.4,115.6 268.8,114.1 272.1,112.7 275.5,111.3 278.9,109.9 282.4,108.6 285.8,107.3 289.2,106.1 292.7,104.9 296.2,103.8 299.7,102.6 303.2,101.6 306.7,100.5 310.2,99.6 313.8,98.6 317.3,97.7 320.9,96.8 324.4,96 328,95.2 331.6,94.5 335.2,93.8 338.7,93.1 342.3,92.5 345.9,92 349.6,91.4 353.2,90.9 356.8,90.5 360.4,90.1 364.1,89.7 367.7,89.4 371.3,89.2 375,88.9 378.6,88.7 382.2,88.6 385.9,88.5 389.5,88.4 393.1,88.4 396.8,88.4 400.4,88.5 404,88.6 407.7,88.7 411.3,88.9 414.9,89.2 418.5,89.5 422.2,89.8 425.8,90.1 429.4,90.5 433,91 436.6,91.5 440.2,92 443.7,92.6 447.3,93.2 450.9,93.8 454.4,94.5 458,95.3 461.5,96.1 465,96.9 468.5,97.7 472.1,98.6 475.5,99.6 479,100.6 482.5,101.6 485.9,102.6 489.4,103.7 492.8,104.9 496.2,106.1 499.6,107.3 503,108.5 506.4,109.8 509.7,111.2 513,112.6 516.4,114 519.7,115.4 522.9,116.9 526.2,118.4 529.4,120 532.7,121.6 535.9,123.3 539,124.9 542.2,126.7 545.3,128.4 548.5,130.2 551.6,132 554.6,133.9 557.7,135.8 560.7,137.7 563.7,139.7 566.7,141.7 569.7,143.7 572.6,145.7 575.5,147.8 578.4,150 581.2,152.1 584.1,154.3 586.9,156.6 589.7,158.8 592.4,161.1 595.1,163.5 597.8,165.8 600.5,168.2 603.1,170.6 605.7,173.1 608.3,175.5 610.9,178 613.4,180.6 615.9,183.1 618.3,185.7 620.7,188.3 623.1,191 625.5,193.7 627.8,196.4 630.1,199.1 632.4,201.8 634.6,204.6 636.8,207.4 639,210.3 641.1,213.1 643.2,216 645.3,218.9 647.3,221.8 649.3,224.7 651.3,227.7 653.2,230.7 655.1,233.7 656.9,236.7 658.8,239.8 660.5,242.9 662.3,246 664,249.1 665.7,252.2 667.3,255.4 668.9,258.5 670.4,261.7 672,264.9 673.4,268.1 674.9,271.4 676.3,274.6 677.7,277.9 679,281.2 680.3,284.5 681.5,287.8 682.8,291.1 683.9,294.4 685.1,297.8 686.2,301.1 687.2,304.5 688.2,307.9 689.2,311.3 690.1,314.7 691,318.1 691.9,321.5 692.7,324.9 693.5,328.4 694.2,331.8 694.9,335.3 695.6,338.7 696.2,342.2 696.8,345.7 697.3,349.2 697.8,352.7 698.2,356.1 698.6,359.6 699,363.1 699.3,366.6 699.6,370.1 699.9,373.6 700.1,377.2 700.2,380.7 700.4,384.2 700.4,387.7 700.5,391.2 700.5,394.7 700.4,398.2 700.3,402.2 700.2,406.3 700,410.3 699.7,414.4 699.4,418.4 699,422.4 698.6,426.4 698.1,430.4 697.6,434.4 697,438.4 696.4,442.4 695.7,446.4 694.9,450.3 694.1,454.3 693.3,458.2 692.4,462.1 691.4,466.1 690.4,470 689.4,473.8 688.3,477.7 687.1,481.5 685.9,485.4 684.6,489.2 683.3,493 681.9,496.8 680.5,500.5 679,504.2 677.5,508 676,511.6 674.3,515.3 672.7,519 671,522.6 669.2,526.2 667.4,529.7 665.5,533.3 663.6,536.8 661.7,540.3 659.7,543.8 657.6,547.2 655.6,550.6 653.4,554 651.3,557.3 649,560.7 646.8,563.9 644.5,567.2 642.1,570.4 639.7,573.6 637.3,576.8 634.8,579.9 632.3,583 629.7,586 627.1,589 624.5,592 621.8,594.9 619.1,597.9 616.3,600.7 613.6,603.5 610.7,606.3 607.9,609.1 605,611.8 602,614.5 599.1,617.1 596.1,619.7 593,622.2 589.9,624.7 586.8,627.2 583.7,629.6 580.5,632 577.3,634.3 574.1,636.6 570.9,638.9 567.6,641.1 564.3,643.2 560.9,645.3 557.6,647.4 554.2,649.4 550.7,651.4 547.3,653.3 543.8,655.2 540.3,657 536.8,658.8 533.3,660.5 529.7,662.2 526.1,663.9 522.5,665.4 518.9,667 515.3,668.5 511.6,669.9 507.9,671.3 504.2,672.6 500.5,673.9 496.8,675.2 493,676.4 489.3,677.5 485.5,678.6 481.7,679.6 477.9,680.6 474.1,681.5 470.3,682.4 466.5,683.2 462.6,684 458.8,684.7 454.9,685.4 451.1,686 447.2,686.6 443.3,687.1 439.4,687.6 435.5,688 431.6,688.3 427.8,688.6 423.9,688.9 420,689.1 416.1,689.2 412.2,689.3 408.3,689.4 404.4,689.4 400.5,689.3 396.6,689.2 392.7,689 388.8,688.8 384.9,688.5 381,688.2 377.2,687.8 373.3,687.4 369.4,686.9 365.6,686.4 361.8,685.8 357.9,685.2 354.1,684.5 350.3,683.7 346.5,683 342.7,682.1 338.9,681.2 335.2,680.3 331.4,679.3 327.7,678.3 324,677.2 320.3,676 316.6,674.8 312.9,673.6 309.3,672.3 305.7,671 302.1,669.6 298.5,668.2 294.9,666.7 291.4,665.2 287.9,663.6 284.4,662 280.9,660.3 277.4,658.6 274,656.8 270.6,655 267.2,653.2 263.9,651.3 260.5,649.3 257.2,647.4 254,645.3 250.7,643.3 247.5,641.1 244.3,639 241.2,636.8 238.1,634.6 235,632.3 231.9,630 228.9,627.6 225.9,625.2 223,622.8 220,620.3 217.1,617.8 214.3,615.2 211.5,612.6 208.7,610 206,607.3 203.2,604.6 200.6,601.9 197.9,599.1 195.3,596.3 192.8,593.5 190.3,590.6 187.8,587.7 185.4,584.8 183,581.8 180.6,578.8 178.3,575.8 176,572.7 173.8,569.6 171.6,566.5 169.5,563.4 167.4,560.2 165.3,557 163.3,553.8 161.3,550.5 159.4,547.2 157.5,543.9 155.7,540.6 153.9,537.3 152.2,533.9 150.5,530.5 148.8,527.1 147.2,523.7 145.7,520.2 144.2,516.7 142.7,513.2 141.3,509.7 139.9,506.2 138.6,502.7 137.3,499.1 136.1,495.5 134.9,491.9 133.8,488.3 132.7,484.7 131.7,481.1 130.7,477.4 129.8,473.8 128.9,470.1 128.1,466.4 127.3,462.7 126.6,459 125.9,455.3 125.3,451.6 124.7,447.9 124.2,444.2 123.7,440.4 123.3,436.7 122.9,433 122.6,429.2 122.3,425.5 122.1,421.7 121.9,418 121.8,414.2 121.7,410.5 121.7,406.7 121.8,403 121.8,399.2 122,395.5 122.1,391.8 122.4,388 122.7,384.3 123,380.6 123.4,376.8 123.8,373.1 124.3,369.4 124.8,365.7 125.4,362 126,358.4 126.7,354.7 127.4,351 128.2,347.4 129,343.7 129.9,340.1 130.8,336.5 131.8,332.9 132.8,329.3 133.9,325.8 135,322.2 136.2,318.7 137.4,315.2 138.6,311.7 139.9,308.2 141.3,304.7 142.7,301.3 144.1,297.9 145.6,294.5 147.1,291.1 148.7,287.8 150.3,284.4 152,281.1 153.7,277.8 155.5,274.6 157.3,271.3 159.1,268.1 161,264.9 162.9,261.8 164.9,258.6 166.9,255.5 168.9,252.5 171,249.4 173.1,246.4 175.3,243.4 177.5,240.5 179.7,237.5 182,234.6 184.3,231.8 186.7,229 189.1,226.2 191.5,223.4 194,220.7 196.5,218 199,215.3 201.6,212.7 204.2,210.1 206.9,207.6 209.5,205 212.2,202.6 215,200.1 217.8,197.7 220.6,195.4 223.4,193 226.3,190.8 229.2,188.5 232.1,186.3 235,184.1 238,182 241,179.9 244,177.9 247.1,175.9 250.2,173.9 253.3,172 256.4,170.1 259.6,168.3 262.8,166.5 266,164.8 269.2,163.1 272.4,161.4 275.7,159.8 279,158.2 282.3,156.7 285.6,155.2 289,153.8 292.3,152.4 295.7,151.1 299.1,149.8 302.5,148.5 305.9,147.3 309.4,146.2 312.8,145.1 316.3,144 319.8,143 323.3,142 326.8,141.1 330.3,140.3 333.8,139.4 337.4,138.7 340.9,137.9 344.5,137.3 348,136.6 351.6,136 355.2,135.5 358.8,135 362.3,134.6 365.9,134.2 369.5,133.9 373.1,133.6 376.7,133.3 380.3,133.1 383.9,133 387.5,132.9 391.1,132.8 394.7,132.8 398.3,132.9 401.9,133 405.5,133.1 409.1,133.3 412.7,133.6 416.2,133.9 419.8,134.2 423.4,134.6 427,135 430.5,135.5 434.1,136 437.6,136.6 441.1,137.2 444.6,137.9 448.1,138.6 451.6,139.4 455.1,140.2 458.6,141 462.1,142 465.5,142.9 468.9,143.9 472.3,144.9 475.7,146 479.1,147.2 482.5,148.3 485.8,149.6 489.2,150.8 492.5,152.1 495.8,153.5 499.1,154.9 502.3,156.3 505.5,157.8 508.8,159.4 511.9,160.9 515.1,162.5 518.3,164.2 521.4,165.9 524.5,167.6 527.5,169.4 530.6,171.2 533.6,173.1 536.6,175 539.6,176.9 542.5,178.9 545.4,180.9 548.3,183 551.2,185.1 554,187.2 556.8,189.4 559.5,191.6 562.3,193.8 565,196.1 567.6,198.4 570.3,200.8 572.9,203.2 575.4,205.6 578,208 580.5,210.5 583,213 585.4,215.6 587.8,218.1 590.1,220.8 592.5,223.4 594.8,226.1 597,228.8 599.2,231.5 601.4,234.3 603.5,237 605.6,239.9 607.7,242.7 609.7,245.6 611.7,248.5 613.7,251.4 615.6,254.3 617.4,257.3 619.2,260.3 621,263.3 622.8,266.3 624.5,269.4 626.1,272.5 627.7,275.6 629.3,278.7 630.8,281.8 632.3,285 633.7,288.2 635.1,291.4 636.5,294.6 637.8,297.8 639.1,301.1 640.3,304.3 641.5,307.6 642.6,310.9 643.7,314.2 644.7,317.5 645.7,320.8 646.7,324.2 647.6,327.5 648.5,330.9 649.3,334.3 650,337.7 650.8,341.1 651.4,344.5 652.1,347.9 652.7,351.3 653.2,354.7 653.7,358.1 654.1,361.6 654.5,365 654.9,368.5 655.2,371.9 655.5,375.3 655.7,378.8 655.8,382.2 656,385.7 656,389.1 656.1,392.6 656,396 656,399.5 655.8,403.6 655.6,407.6 655.4,411.7 655,415.7 654.6,419.8 654.2,423.8 653.7,427.9 653.1,431.9 652.4,435.9 651.7,439.9 650.9,443.9 650.1,447.8 649.2,451.8 648.2,455.7 647.2,459.6 646.1,463.5 645,467.4 643.7,471.3 642.5,475.1 641.1,478.9 639.8,482.7 638.3,486.5 636.8,490.2 635.2,493.9 633.6,497.6 631.9,501.3 630.2,504.9 628.4,508.5 626.5,512.1 624.6,515.6 622.6,519.1 620.6,522.6 618.5,526 616.4,529.4 614.2,532.8 612,536.1 609.7,539.4 607.4,542.7 605,545.9 602.5,549.1 600.1,552.2 597.5,555.3 594.9,558.3 592.3,561.3 589.6,564.3 586.9,567.2 584.1,570.1 581.3,572.9 578.5,575.7 575.6,578.5 572.6,581.2 569.7,583.8 566.6,586.4 563.6,588.9 560.5,591.4 557.3,593.9 554.2,596.3 551,598.6 547.7,600.9 544.4,603.1 541.1,605.3 537.8,607.4 534.4,609.5 531,611.5 527.5,613.5 524.1,615.4 520.6,617.2 517.1,619 513.5,620.7 509.9,622.4 506.3,624 502.7,625.6 499.1,627.1 495.4,628.5 491.7,629.9 488,631.3 484.3,632.5 480.5,633.7 476.7,634.9 473,635.9 469.2,637 465.4,637.9 461.5,638.8 457.7,639.7 453.9,640.5 450,641.2 446.1,641.8 442.3,642.4 438.4,642.9 434.5,643.4 430.6,643.8 426.7,644.2 422.8,644.4 418.9,644.7 415,644.8 411.1,644.9 407.2,645 403.3,644.9 399.4,644.8 395.5,644.7 391.6,644.5 387.7,644.2 383.9,643.9 380,643.5 376.1,643 372.3,642.5 368.5,641.9 364.6,641.2 360.8,640.5 357,639.8 353.2,638.9 349.4,638.1 345.7,637.1 342,636.1 338.2,635.1 334.5,633.9 330.9,632.8 327.2,631.5 323.6,630.2 319.9,628.9 316.3,627.5 312.8,626 309.2,624.5 305.7,622.9 302.2,621.3 298.8,619.6 295.3,617.8 291.9,616.1 288.6,614.2 285.2,612.3 281.9,610.4 278.6,608.4 275.4,606.3 272.2,604.2 269,602 265.9,599.8 262.8,597.6 259.7,595.3 256.7,592.9 253.7,590.5 250.8,588.1 247.9,585.6 245,583.1 242.2,580.5 239.4,577.9 236.7,575.2 234,572.5 231.3,569.8 228.7,567 226.2,564.2 223.7,561.3 221.2,558.4 218.8,555.5 216.4,552.5 214.1,549.5 211.9,546.5 209.7,543.4 207.5,540.3 205.4,537.1 203.3,533.9 201.3,530.7 199.3,527.5 197.4,524.2 195.6,520.9 193.8,517.6 192,514.3 190.3,510.9 188.7,507.5 187.1,504.1 185.6,500.6 184.1,497.1 182.7,493.6 181.3,490.1 180,486.6 178.8,483.1 177.6,479.5 176.5,475.9 175.4,472.3 174.4,468.7 173.4,465.1 172.5,461.4 171.7,457.8 170.9,454.1 170.2,450.4 169.5,446.7 168.9,443 168.4,439.3 167.9,435.6 167.5,431.9 167.1,428.2 166.8,424.5 166.6,420.8 166.4,417 166.2,413.3 166.2,409.6 166.2,405.9 166.2,402.1 166.3,398.4 166.5,394.7 166.7,391 167,387.3 167.3,383.6 167.7,379.9 168.2,376.2 168.7,372.5 169.3,368.9 169.9,365.2 170.6,361.6 171.4,358 172.2,354.4 173,350.8 174,347.2 174.9,343.6 176,340.1 177.1,336.6 178.2,333.1 179.4,329.6 180.7,326.1 182,322.7 183.3,319.2 184.8,315.8 186.2,312.5 187.8,309.1 189.3,305.8 191,302.5 192.6,299.3 194.4,296 196.1,292.8 198,289.6 199.9,286.5 201.8,283.4 203.8,280.3 205.8,277.3 207.9,274.2 210,271.3 212.1,268.3 214.3,265.4 216.6,262.5 218.9,259.7 221.2,256.9 223.6,254.2 226.1,251.4 228.5,248.8 231,246.1 233.6,243.5 236.2,241 238.8,238.5 241.5,236 244.2,233.6 246.9,231.2 249.7,228.9 252.5,226.6 255.4,224.4 258.3,222.2 261.2,220.1 264.1,218 267.1,215.9 270.1,213.9 273.1,212 276.2,210.1 279.3,208.2 282.4,206.4 285.6,204.7 288.8,203 292,201.3 295.2,199.7 298.4,198.2 301.7,196.7 305,195.3 308.3,193.9 311.7,192.5 315,191.3 318.4,190.1 321.8,188.9 325.2,187.8 328.6,186.7 332,185.7 335.5,184.8 339,183.9 342.4,183 345.9,182.3 349.4,181.5 352.9,180.9 356.4,180.3 360,179.7 363.5,179.2 367,178.8 370.6,178.4 374.1,178.1 377.6,177.8 381.2,177.6 384.7,177.4 388.3,177.3 391.8,177.3 395.4,177.3 398.9,177.3 402.5,177.5 406,177.6 409.5,177.9 413.1,178.2 416.6,178.5 420.1,178.9 423.6,179.4 427.1,179.9 430.6,180.5 434.1,181.1 437.5,181.8 441,182.5 444.4,183.3 447.8,184.1 451.2,185 454.6,186 458,187 461.3,188.1 464.6,189.2 468,190.3 471.2,191.5 474.5,192.8 477.8,194.1 481,195.5 484.2,196.9 487.4,198.4 490.5,199.9 493.6,201.5 496.7,203.1 499.8,204.7 502.8,206.5 505.9,208.2 508.8,210 511.8,211.9 514.7,213.8 517.6,215.7 520.5,217.7 523.3,219.7 526.1,221.8 528.8,223.9 531.5,226.1 534.2,228.3 536.9,230.5 539.5,232.8 542,235.2 544.6,237.5 547.1,239.9 549.5,242.4 551.9,244.8 554.3,247.4 556.6,249.9 558.9,252.5 561.1,255.1 563.3,257.8 565.5,260.5 567.6,263.2 569.7,265.9 571.7,268.7 573.7,271.5 575.6,274.4 577.5,277.3 579.3,280.2 581.1,283.1 582.9,286 584.6,289 586.2,292 587.8,295.1 589.3,298.1 590.8,301.2 592.3,304.3 593.7,307.4 595,310.6 596.3,313.7 597.6,316.9 598.8,320.1 599.9,323.3 601,326.5 602,329.8 603,333 603.9,336.3 604.8,339.6 605.7,342.9 606.4,346.2 607.1,349.5 607.8,352.8 608.4,356.2 609,359.5 609.5,362.9 609.9,366.2 610.3,369.6 610.7,372.9 611,376.3 611.2,379.7 611.4,383.1 611.5,386.4 611.6,389.8 611.6,393.2 611.6,396.5 611.5,399.9 611.3,404 611.1,408.1 610.8,412.2 610.3,416.3 609.8,420.4 609.3,424.4 608.6,428.5 607.9,432.5 607.1,436.5 606.2,440.5 605.2,444.5 604.2,448.4 603.1,452.4 601.9,456.3 600.6,460.2 599.3,464 597.9,467.8 596.4,471.6 594.8,475.4 593.2,479.1 591.5,482.8 589.7,486.4 587.9,490 586,493.6 584,497.1 582,500.6 579.9,504.1 577.7,507.5 575.4,510.9 573.1,514.2 570.8,517.4 568.3,520.7 565.9,523.8 563.3,526.9 560.7,530 558,533 555.3,536 552.5,538.9 549.7,541.7 546.8,544.5 543.9,547.2 540.9,549.9 537.9,552.5 534.8,555.1 531.7,557.6 528.5,560 525.3,562.3 522,564.6 518.7,566.9 515.4,569 512,571.1 508.6,573.2 505.1,575.1 501.6,577 498.1,578.8 494.5,580.6 490.9,582.3 487.3,583.9 483.7,585.4 480,586.9 476.3,588.3 472.6,589.6 468.8,590.8 465,592 461.3,593.1 457.5,594.1 453.6,595.1 449.8,595.9 445.9,596.7 442.1,597.5 438.2,598.1 434.3,598.7 430.4,599.2 426.5,599.6 422.6,599.9 418.7,600.2 414.8,600.4 410.9,600.5 407,600.5 403.1,600.5 399.2,600.4 395.3,600.2 391.4,599.9 387.6,599.6 383.7,599.2 379.8,598.7 376,598.1 372.2,597.5 368.3,596.7 364.5,596 360.8,595.1 357,594.2 353.3,593.2 349.6,592.1 345.9,590.9 342.2,589.7 338.6,588.4 335,587.1 331.4,585.6 327.9,584.1 324.3,582.6 320.9,580.9 317.4,579.2 314,577.5 310.6,575.6 307.3,573.8 304,571.8 300.7,569.8 297.5,567.7 294.4,565.6 291.2,563.4 288.2,561.1 285.1,558.8 282.2,556.4 279.2,554 276.3,551.5 273.5,549 270.7,546.4 268,543.7 265.3,541 262.7,538.3 260.1,535.5 257.6,532.7 255.2,529.8 252.8,526.8 250.4,523.9 248.2,520.9 246,517.8 243.8,514.7 241.7,511.6 239.7,508.4 237.7,505.2 235.8,501.9 234,498.6 232.2,495.3 230.5,492 228.9,488.6 227.3,485.2 225.8,481.8 224.4,478.3 223,474.8 221.8,471.3 220.5,467.8 219.4,464.2 218.3,460.7 217.3,457.1 216.3,453.5 215.5,449.9 214.7,446.2 213.9,442.6 213.3,438.9 212.7,435.3 212.2,431.6 211.7,427.9 211.4,424.2 211.1,420.6 210.8,416.9 210.7,413.2 210.6,409.5 210.6,405.8 210.6,402.1 210.8,398.4 211,394.8 211.2,391.1 211.6,387.4 212,383.8 212.5,380.1 213.1,376.5 213.7,372.9 214.4,369.3 215.2,365.7 216,362.2 216.9,358.6 217.9,355.1 218.9,351.6 220,348.1 221.2,344.7 222.4,341.3 223.7,337.9 225.1,334.5 226.5,331.2 228,327.9 229.6,324.6 231.2,321.3 232.9,318.1 234.7,315 236.5,311.8 238.3,308.7 240.2,305.7 242.2,302.7 244.3,299.7 246.4,296.7 248.5,293.9 250.7,291 253,288.2 255.3,285.5 257.6,282.8 260.1,280.1 262.5,277.5 265,274.9 267.6,272.4 270.2,270 272.8,267.6 275.5,265.2 278.3,262.9 281,260.7 283.9,258.5 286.7,256.4 289.6,254.3 292.5,252.3 295.5,250.4 298.5,248.5 301.6,246.7 304.6,244.9 307.7,243.2 310.9,241.5 314,240 317.2,238.4 320.4,237 323.7,235.6 327,234.3 330.2,233 333.6,231.8 336.9,230.7 340.2,229.6 343.6,228.6 347,227.7 350.4,226.8 353.8,226 357.2,225.3 360.7,224.6 364.1,224 367.6,223.5 371,223 374.5,222.6 378,222.3 381.4,222 384.9,221.9 388.4,221.7 391.9,221.7 395.3,221.7 398.8,221.8 402.3,221.9 405.7,222.1 409.2,222.4 412.6,222.8 416,223.2 419.5,223.7 422.9,224.2 426.3,224.8 429.6,225.5 433,226.2 436.3,227.1 439.7,227.9 443,228.9 446.3,229.9 449.5,230.9 452.8,232.1 456,233.2 459.2,234.5 462.3,235.8 465.4,237.2 468.5,238.6 471.6,240.1 474.6,241.6 477.7,243.2 480.6,244.9 483.6,246.6 486.5,248.4 489.3,250.2 492.1,252.1 494.9,254 497.7,256 500.4,258.1 503,260.2 505.6,262.3 508.2,264.5 510.7,266.7 513.2,269 515.7,271.3 518,273.7 520.4,276.1 522.7,278.6 524.9,281.1 527.1,283.6 529.2,286.2 531.3,288.8 533.3,291.5 535.3,294.2 537.2,296.9 539.1,299.7 540.9,302.5 542.7,305.3 544.4,308.2 546,311.1 547.6,314 549.1,317 550.6,320 552,323 553.3,326 554.6,329 555.8,332.1 557,335.2 558.1,338.3 559.1,341.5 560.1,344.6 561,347.8 561.9,351 562.7,354.2 563.4,357.4 564.1,360.6 564.7,363.8 565.2,367 565.7,370.3 566.1,373.5 566.4,376.8 566.7,380.1 566.9,383.3 567.1,386.6 567.2,389.8 567.2,393.1 567.2,396.3 567.1,399.6 566.9,403.8 566.5,407.9 566.1,412.1 565.6,416.2 565,420.3 564.2,424.4 563.4,428.5 562.5,432.5 561.4,436.5 560.3,440.5 559,444.5 557.7,448.4 556.3,452.3 554.8,456.1 553.2,459.9 551.4,463.6 549.6,467.3 547.8,470.9 545.8,474.5 543.7,478.1 541.6,481.6 539.3,485 537,488.3 534.6,491.6 532.1,494.9 529.6,498 527,501.1 524.3,504.2 521.5,507.1 518.6,510 515.7,512.8 512.7,515.5 509.7,518.2 506.6,520.8 503.4,523.3 500.2,525.7 496.9,528 493.6,530.2 490.2,532.4 486.8,534.5 483.3,536.4 479.8,538.3 476.2,540.1 472.6,541.8 468.9,543.4 465.3,544.9 461.5,546.4 457.8,547.7 454,548.9 450.2,550.1 446.4,551.1 442.6,552 438.7,552.9 434.8,553.6 431,554.3 427.1,554.8 423.2,555.3 419.2,555.6 415.3,555.9 411.4,556.1 407.5,556.1 403.6,556.1 399.7,555.9 395.8,555.7 391.9,555.4 388,555 384.2,554.4 380.4,553.8 376.5,553.1 372.8,552.3 369,551.4 365.3,550.4 361.6,549.3 357.9,548.1 354.2,546.9 350.6,545.5 347.1,544.1 343.6,542.5 340.1,540.9 336.7,539.2 333.3,537.4 329.9,535.6 326.7,533.6 323.4,531.6 320.3,529.5 317.1,527.3 314.1,525 311.1,522.7 308.2,520.3 305.3,517.8 302.5,515.3 299.8,512.7 297.1,510 294.5,507.3 292,504.5 289.5,501.6 287.2,498.7 284.9,495.8 282.6,492.7 280.5,489.7 278.4,486.6 276.5,483.4 274.6,480.2 272.7,476.9 271,473.6 269.4,470.3 267.8,466.9 266.3,463.5 265,460.1 263.7,456.6 262.4,453.1 261.3,449.6 260.3,446.1 259.4,442.5 258.5,439 257.8,435.4 257.1,431.8 256.5,428.1 256,424.5 255.6,420.9 255.3,417.2 255.1,413.6 255,410 255,406.3 255,402.7 255.2,399.1 255.4,395.5 255.8,391.9 256.2,388.3 256.7,384.7 257.3,381.1 258,377.6 258.8,374.1 259.6,370.6 260.6,367.2 261.6,363.7 262.8,360.3 264,357 265.2,353.6 266.6,350.3 268.1,347.1 269.6,343.9 271.2,340.7 272.9,337.6 274.6,334.5 276.5,331.5 278.4,328.5 280.3,325.6 282.4,322.7 284.5,319.9 286.7,317.1 288.9,314.4 291.2,311.8 293.6,309.2 296,306.7 298.5,304.3 301.1,301.9 303.7,299.6 306.4,297.3 309.1,295.1 311.8,293 314.6,291 317.5,289 320.4,287.2 323.3,285.4 326.3,283.6 329.4,282 332.4,280.4 335.5,278.9 338.6,277.5 341.8,276.1 345,274.9 348.2,273.7 351.4,272.6 354.7,271.6 358,270.7 361.3,269.9 364.6,269.1 367.9,268.4 371.2,267.8 374.6,267.3 377.9,266.9 381.3,266.6 384.7,266.3 388,266.2 391.4,266.1 394.7,266.1 398.1,266.2 401.4,266.3 404.8,266.6 408.1,266.9 411.4,267.4 414.7,267.9 418,268.4 421.2,269.1 424.5,269.8 427.7,270.7 430.8,271.6 434,272.6 437.1,273.6 440.2,274.8 443.3,276 446.3,277.3 449.3,278.6 452.2,280 455.1,281.6 458,283.1 460.8,284.8 463.6,286.5 466.3,288.3 469,290.1 471.6,292 474.2,294 476.7,296 479.2,298.1 481.6,300.2 484,302.5 486.3,304.7 488.5,307 490.7,309.4 492.8,311.8 494.8,314.3 496.8,316.8 498.7,319.3 500.6,322 502.3,324.6 504.1,327.3 505.7,330 507.3,332.8 508.8,335.6 510.2,338.4 511.5,341.2 512.8,344.1 514,347 515.1,350 516.2,352.9 517.2,355.9 518.1,358.9 518.9,361.9 519.6,365 520.3,368 520.9,371.1 521.4,374.1 521.8,377.2 522.2,380.3 522.5,383.4 522.7,386.5 522.8,389.5 522.8,392.6 522.8,395.7 522.6,400 522.3,404.3 521.8,408.6 521.2,412.8 520.4,417 519.5,421.1 518.5,425.3 517.3,429.3 515.9,433.4 514.5,437.3 512.9,441.2 511.1,445 509.3,448.8 507.3,452.5 505.1,456.1 502.9,459.6 500.5,463 498.1,466.4 495.5,469.6 492.8,472.8 490,475.8 487.1,478.8 484.1,481.6 481,484.3 477.9,486.9 474.6,489.4 471.3,491.7 467.9,494 464.4,496.1 460.9,498.1 457.3,499.9 453.7,501.7 450,503.3 446.2,504.7 442.4,506 438.6,507.2 434.8,508.3 430.9,509.2 427,510 423.1,510.6 419.1,511.1 415.2,511.4 411.3,511.7 407.3,511.7 403.4,511.7 399.5,511.5 395.6,511.2 391.7,510.7 387.9,510.1 384.1,509.3 380.3,508.5 376.6,507.5 372.9,506.4 369.3,505.1 365.7,503.7 362.2,502.2 358.7,500.6 355.3,498.9 352,497 348.7,495.1 345.6,493 342.5,490.8 339.5,488.6 336.6,486.2 333.7,483.7 331,481.2 328.4,478.5 325.8,475.8 323.4,473 321.1,470.1 318.9,467.1 316.8,464.1 314.8,461 312.9,457.8 311.1,454.6 309.5,451.4 308,448.1 306.6,444.7 305.3,441.3 304.1,437.9 303.1,434.4 302.2,430.9 301.4,427.4 300.8,423.9 300.2,420.4 299.8,416.8 299.5,413.3 299.4,409.7 299.3,406.2 299.4,402.6 299.7,399.1 300,395.6 300.5,392.1 301,388.7 301.7,385.3 302.6,381.9 303.5,378.5 304.5,375.2 305.7,372 307,368.8 308.4,365.6 309.9,362.5 311.4,359.5 313.1,356.5 314.9,353.7 316.8,350.8 318.8,348.1 320.9,345.4 323,342.8 325.3,340.3 327.6,337.9 330,335.6 332.5,333.3 335,331.2 337.6,329.1 340.3,327.2 343,325.3 345.8,323.6 348.7,322 351.6,320.4 354.5,319 357.5,317.7 360.5,316.5 363.5,315.4 366.6,314.4 369.7,313.5 372.8,312.7 376,312 379.1,311.5 382.3,311.1 385.4,310.7 388.6,310.5 391.8,310.4 394.9,310.4 398,310.6 401.2,310.8 404.3,311.1 407.4,311.6 410.4,312.2 413.5,312.8 416.5,313.6 419.4,314.5 422.3,315.4 425.2,316.5 428,317.7 430.8,318.9 433.5,320.3 436.2,321.7 438.8,323.3 441.3,324.9 443.8,326.6 446.2,328.4 448.6,330.2 450.8,332.2 453,334.2 455.1,336.3 457.2,338.4 459.1,340.6 461,342.9 462.7,345.3 464.4,347.6 466,350.1 467.5,352.6 468.9,355.1 470.2,357.7 471.5,360.3 472.6,362.9 473.6,365.6 474.6,368.3 475.4,371 476.1,373.7 476.8,376.5 477.3,379.2 477.7,382 478.1,384.8 478.3,387.6 478.5,390.3 478.5,393.1 478.4,395.9 478.3,398.6 477.8,403.2 477.1,407.7 476.1,412.1 474.9,416.4 473.4,420.6 471.7,424.8 469.7,428.7 467.6,432.6 465.2,436.3 462.6,439.8 459.9,443.1 456.9,446.3 453.8,449.2 450.6,452 447.2,454.5 443.7,456.9 440,459 436.3,460.9 432.5,462.5 428.7,463.9 424.7,465.1 420.8,466 416.8,466.7 412.8,467.2 408.8,467.4 404.8,467.4 400.9,467.2 397,466.7 393.1,466 389.4,465.1 385.7,463.9 382.1,462.6 378.6,461.1 375.2,459.3 372,457.4 368.9,455.3 366,453.1 363.2,450.7 360.5,448.1 358.1,445.4 355.8,442.6 353.7,439.7 351.8,436.7 350.1,433.6 348.6,430.4 347.3,427.2 346.1,423.9 345.2,420.5 344.5,417.2 344,413.8 343.7,410.5 343.6,407.1 343.7,403.8 344,400.5 344.5,397.2 345.1,394.1 346,390.9 347,387.9 348.2,384.9 349.5,382.1 351.1,379.3 352.7,376.7 354.5,374.2 356.4,371.8 358.5,369.5 360.7,367.4 362.9,365.5 365.3,363.7 367.7,362 370.2,360.5 372.8,359.2 375.5,358.1 378.1,357.1 380.8,356.2 383.6,355.6 386.3,355.1 389,354.8 391.8,354.6 394.5,354.6 397.2,354.8 399.8,355.1 402.4,355.6 404.9,356.2 407.4,357 409.8,357.9 412.1,358.9 414.4,360.1 416.5,361.4 418.5,362.8 420.5,364.3 422.3,365.9 424,367.6 425.6,369.3 427.1,371.2 428.4,373.1 429.6,375.1 430.7,377.1 431.6,379.1 432.4,381.2 433.1,383.3 433.6,385.5 434,387.6 434.3,389.7 434.4,391.8 434.4,393.9 434.3,396 434.1,398 433.7,400 426,415 419.9,419.9 413.2,422.8 400,422.6 390.5,416.4 387.9,412.1 386.8,407.6 388.5,400 393.2,396.1 395.8,395.8 397.9,396.4 400,399.6 398.4,402.9 396.4,403.6 393.9,403.5 389.3,400 Z"></path></svg>