<?xml version="1.0" standalone="no"?>
<!DOCTYPE svg PUBLIC "-//W3C//DTD SVG 20010904//EN"
 "http://www.w3.org/TR/2001/REC-SVG-20010904/DTD/svg10.dtd">
<svg version="1.0" xmlns="http://www.w3.org/2000/svg"
 width="260.000000pt" height="260.000000pt" viewBox="0 0 260.000000 260.000000"
 preserveAspectRatio="xMidYMid meet">
<metadata>
Created by potrace 1.11, written by Peter Selinger 2001-2013
</metadata>
<g transform="translate(0.000000,260.000000) scale(0.100000,-0.100000)"
fill="#000000" stroke="none">
<path d="M1125 2245 c-116 -27 -181 -51 -283 -106 -185 -99 -354 -274 -448
-463 -30 -60 -98 -236 -94 -244 2 -3 -6 -41 -17 -82 -10 -42 -12 -324 -2 -368
5 -23 12 -59 15 -79 17 -105 92 -286 166 -400 l40 -63 107 82 c58 45 108 83
110 84 2 2 -7 20 -19 41 -68 114 -112 219 -136 328 -15 65 -13 279 2 350 9 39
17 78 19 87 2 9 9 26 15 37 6 12 8 21 6 21 -9 0 75 153 107 195 53 70 151 161
219 204 427 270 979 73 1097 -392 23 -87 21 -218 -5 -306 -76 -267 -354 -441
-599 -376 -208 55 -339 251 -293 436 37 145 177 231 294 180 73 -33 100 -107
55 -154 -11 -13 -18 -27 -14 -31 5 -4 3 -6 -2 -4 -16 5 -17 -7 -10 -77 7 -63
8 -65 40 -71 125 -23 242 86 253 236 10 145 -64 267 -203 335 -38 20 -91 39
-117 44 -206 37 -434 -89 -527 -291 -67 -149 -70 -322 -7 -477 140 -344 561
-508 926 -359 41 17 82 36 90 42 8 7 28 18 44 26 29 15 173 151 210 200 47 59
108 194 132 287 95 375 -60 766 -393 989 -219 147 -512 199 -778 139z"/>
</g>
</svg>
